<svg width="91" height="16" viewBox="0 0 91 16" fill="none" xmlns="http://www.w3.org/2000/svg">
<path d="M6.26 15.24C5.14 15.24 4.06667 15.0933 3.04 14.8C2.01333 14.4933 1.18667 14.1 0.56 13.62L1.66 11.18C2.26 11.6067 2.96667 11.96 3.78 12.24C4.60667 12.5067 5.44 12.64 6.28 12.64C6.92 12.64 7.43333 12.58 7.82 12.46C8.22 12.3267 8.51333 12.1467 8.7 11.92C8.88667 11.6933 8.98 11.4333 8.98 11.14C8.98 10.7667 8.83333 10.4733 8.54 10.26C8.24667 10.0333 7.86 9.85333 7.38 9.72C6.9 9.57333 6.36667 9.44 5.78 9.32C5.20667 9.18667 4.62667 9.02667 4.04 8.84C3.46667 8.65333 2.94 8.41333 2.46 8.12C1.98 7.82667 1.58667 7.44 1.28 6.96C0.986667 6.48 0.84 5.86667 0.84 5.12C0.84 4.32 1.05333 3.59333 1.48 2.94C1.92 2.27333 2.57333 1.74667 3.44 1.36C4.32 0.96 5.42 0.76 6.74 0.76C7.62 0.76 8.48667 0.866666 9.34 1.08C10.1933 1.28 10.9467 1.58667 11.6 2L10.6 4.46C9.94667 4.08667 9.29333 3.81333 8.64 3.64C7.98667 3.45333 7.34667 3.36 6.72 3.36C6.09333 3.36 5.58 3.43333 5.18 3.58C4.78 3.72667 4.49333 3.92 4.32 4.16C4.14667 4.38667 4.06 4.65333 4.06 4.96C4.06 5.32 4.20667 5.61333 4.5 5.84C4.79333 6.05333 5.18 6.22667 5.66 6.36C6.14 6.49333 6.66667 6.62667 7.24 6.76C7.82667 6.89333 8.40667 7.04667 8.98 7.22C9.56667 7.39333 10.1 7.62667 10.58 7.92C11.06 8.21333 11.4467 8.6 11.74 9.08C12.0467 9.56 12.2 10.1667 12.2 10.9C12.2 11.6867 11.98 12.4067 11.54 13.06C11.1 13.7133 10.44 14.24 9.56 14.64C8.69333 15.04 7.59333 15.24 6.26 15.24ZM12.5739 15L18.8139 0.999999H22.0139L28.2739 15H24.8739L19.7539 2.64H21.0339L15.8939 15H12.5739ZM15.6939 12L16.5539 9.54H23.7539L24.6339 12H15.6939ZM29.7264 15V0.999999H32.9664V15H29.7264ZM36.2889 15V0.999999H39.5289V12.36H46.5489V15H36.2889ZM54.9248 15.24C53.8182 15.24 52.7915 15.06 51.8448 14.7C50.9115 14.34 50.0982 13.8333 49.4048 13.18C48.7248 12.5267 48.1915 11.76 47.8048 10.88C47.4315 10 47.2448 9.04 47.2448 8C47.2448 6.96 47.4315 6 47.8048 5.12C48.1915 4.24 48.7315 3.47333 49.4248 2.82C50.1182 2.16667 50.9315 1.66 51.8648 1.3C52.7982 0.939999 53.8115 0.76 54.9048 0.76C56.0115 0.76 57.0248 0.939999 57.9448 1.3C58.8782 1.66 59.6848 2.16667 60.3648 2.82C61.0582 3.47333 61.5982 4.24 61.9848 5.12C62.3715 5.98667 62.5648 6.94667 62.5648 8C62.5648 9.04 62.3715 10.0067 61.9848 10.9C61.5982 11.78 61.0582 12.5467 60.3648 13.2C59.6848 13.84 58.8782 14.34 57.9448 14.7C57.0248 15.06 56.0182 15.24 54.9248 15.24ZM54.9048 12.48C55.5315 12.48 56.1048 12.3733 56.6248 12.16C57.1582 11.9467 57.6248 11.64 58.0248 11.24C58.4248 10.84 58.7315 10.3667 58.9448 9.82C59.1715 9.27333 59.2848 8.66667 59.2848 8C59.2848 7.33333 59.1715 6.72667 58.9448 6.18C58.7315 5.63333 58.4248 5.16 58.0248 4.76C57.6382 4.36 57.1782 4.05333 56.6448 3.84C56.1115 3.62667 55.5315 3.52 54.9048 3.52C54.2782 3.52 53.6982 3.62667 53.1648 3.84C52.6448 4.05333 52.1848 4.36 51.7848 4.76C51.3848 5.16 51.0715 5.63333 50.8448 6.18C50.6315 6.72667 50.5248 7.33333 50.5248 8C50.5248 8.65333 50.6315 9.26 50.8448 9.82C51.0715 10.3667 51.3782 10.84 51.7648 11.24C52.1648 11.64 52.6315 11.9467 53.1648 12.16C53.6982 12.3733 54.2782 12.48 54.9048 12.48ZM64.9998 15V0.999999H71.0598C72.3132 0.999999 73.3932 1.20667 74.2998 1.62C75.2065 2.02 75.9065 2.6 76.3998 3.36C76.8932 4.12 77.1398 5.02667 77.1398 6.08C77.1398 7.12 76.8932 8.02 76.3998 8.78C75.9065 9.52667 75.2065 10.1 74.2998 10.5C73.3932 10.9 72.3132 11.1 71.0598 11.1H66.7998L68.2398 9.68V15H64.9998ZM73.8998 15L70.3998 9.92H73.8598L77.3998 15H73.8998ZM68.2398 10.04L66.7998 8.52H70.8798C71.8798 8.52 72.6265 8.30667 73.1198 7.88C73.6132 7.44 73.8598 6.84 73.8598 6.08C73.8598 5.30667 73.6132 4.70667 73.1198 4.28C72.6265 3.85333 71.8798 3.64 70.8798 3.64H66.7998L68.2398 2.1V10.04ZM84.3069 15.24C83.1869 15.24 82.1135 15.0933 81.0869 14.8C80.0602 14.4933 79.2335 14.1 78.6069 13.62L79.7069 11.18C80.3069 11.6067 81.0135 11.96 81.8269 12.24C82.6535 12.5067 83.4869 12.64 84.3269 12.64C84.9669 12.64 85.4802 12.58 85.8669 12.46C86.2669 12.3267 86.5602 12.1467 86.7469 11.92C86.9335 11.6933 87.0269 11.4333 87.0269 11.14C87.0269 10.7667 86.8802 10.4733 86.5869 10.26C86.2935 10.0333 85.9069 9.85333 85.4269 9.72C84.9469 9.57333 84.4135 9.44 83.8269 9.32C83.2535 9.18667 82.6735 9.02667 82.0869 8.84C81.5135 8.65333 80.9869 8.41333 80.5069 8.12C80.0269 7.82667 79.6335 7.44 79.3269 6.96C79.0335 6.48 78.8869 5.86667 78.8869 5.12C78.8869 4.32 79.1002 3.59333 79.5269 2.94C79.9669 2.27333 80.6202 1.74667 81.4869 1.36C82.3669 0.96 83.4669 0.76 84.7869 0.76C85.6669 0.76 86.5335 0.866666 87.3869 1.08C88.2402 1.28 88.9935 1.58667 89.6469 2L88.6469 4.46C87.9935 4.08667 87.3402 3.81333 86.6869 3.64C86.0335 3.45333 85.3935 3.36 84.7669 3.36C84.1402 3.36 83.6269 3.43333 83.2269 3.58C82.8269 3.72667 82.5402 3.92 82.3669 4.16C82.1935 4.38667 82.1069 4.65333 82.1069 4.96C82.1069 5.32 82.2535 5.61333 82.5469 5.84C82.8402 6.05333 83.2269 6.22667 83.7069 6.36C84.1869 6.49333 84.7135 6.62667 85.2869 6.76C85.8735 6.89333 86.4535 7.04667 87.0269 7.22C87.6135 7.39333 88.1469 7.62667 88.6269 7.92C89.1069 8.21333 89.4935 8.6 89.7869 9.08C90.0935 9.56 90.2469 10.1667 90.2469 10.9C90.2469 11.6867 90.0269 12.4067 89.5869 13.06C89.1469 13.7133 88.4869 14.24 87.6069 14.64C86.7402 15.04 85.6402 15.24 84.3069 15.24Z" fill="black"/>
</svg>
